3.0Hz3min_grf.mot
version=1
nRows=17
nColumns 19
inDegrees=yes
endheader
time	1_ground_force_vx	1_ground_force_vy	1_ground_force_vz	1_ground_force_px	1_ground_force_py	1_ground_force_pz	1_ground_torque_x	1_ground_torque_y	1_ground_torque_z	2_ground_force_vx	2_ground_force_vy	2_ground_force_vz	2_ground_force_px	2_ground_force_py	2_ground_force_pz	2_ground_torque_x	2_ground_torque_y	2_ground_torque_z
            3.751500	           26.691756	           38.730817	            7.436915	           -0.207355	            0.006421	           -0.450296	           -0.030843	           -0.044754	           -0.008593	            0.148155	           -2.206260	           -0.852650	           -0.232311	            0.006130	           -0.833667	           -0.150010	           -0.076164	           -0.000206
            3.752000	           31.692566	           44.671899	            9.467681	           -0.212099	            0.006397	           -0.444915	           -0.005463	           -0.007700	           -0.001632	            0.424520	           -0.915537	           -1.035883	           -0.232311	            0.006130	           -0.833667	           -0.262533	           -0.142337	           -0.113495
            3.752500	           35.914256	           48.810371	           11.446796	           -0.214989	            0.006390	           -0.443404	            0.135616	            0.184314	            0.043224	            0.097941	           -1.285353	           -0.943201	           -0.232311	            0.006130	           -0.833667	           -0.206299	           -0.086089	            0.075185
            3.753000	           38.759512	           51.148475	           12.825468	           -0.214342	            0.006386	           -0.442420	            0.324506	            0.428230	            0.107378	            0.332149	           -1.284172	           -1.037157	           -0.232311	            0.006130	           -0.833667	           -0.168769	           -0.085618	           -0.019082
            3.753500	           39.496754	           52.403596	           14.434015	           -0.217038	            0.006386	           -0.442659	            0.288402	            0.382647	            0.105396	            0.051029	           -1.285020	           -1.083966	           -0.232311	            0.006130	           -0.833667	           -0.262653	           -0.104660	           -0.075660
            3.754000	           38.626749	           51.861057	           14.800706	           -0.214714	            0.006389	           -0.443153	            0.179831	            0.241445	            0.068906	            0.237182	           -0.916716	           -0.895019	           -0.232311	            0.006130	           -0.833667	           -0.281464	           -0.095343	           -0.056768
            3.754500	           37.204604	           51.141686	           14.342582	           -0.214017	            0.006380	           -0.441113	           -0.086282	           -0.118604	           -0.033262	            0.284073	           -0.916881	           -0.801183	           -0.232311	            0.006130	           -0.833667	           -0.206289	           -0.095340	            0.018601
            3.755000	           35.828493	           48.800129	           13.831531	           -0.209379	            0.006398	           -0.445107	           -0.123812	           -0.168639	           -0.047798	            0.189729	           -0.733239	           -0.753558	           -0.232311	            0.006130	           -0.833667	           -0.187418	           -0.123496	           -0.019209
            3.755500	           35.001092	           46.641304	           12.769618	           -0.207650	            0.006397	           -0.444795	           -0.047201	           -0.062898	           -0.017220	            0.146826	           -1.837963	           -0.851336	           -0.232311	            0.006130	           -0.833667	           -0.243841	           -0.113978	           -0.094552
            3.756000	           34.222471	           44.657641	           12.900617	           -0.212837	            0.006387	           -0.442741	            0.020128	            0.026266	            0.007588	            0.379081	           -1.284672	           -0.849465	           -0.232311	            0.006130	           -0.833667	           -0.300404	           -0.039098	            0.056544
            3.756500	           33.535246	           43.575521	           12.989398	           -0.210892	            0.006364	           -0.437167	            0.124740	            0.162086	            0.048316	            1.304034	            2.034050	           -1.025749	           -0.232311	            0.006130	           -0.833667	           -0.751962	            0.166898	            0.151728
            3.757000	           32.299278	           42.490935	           13.629815	           -0.212251	            0.006372	           -0.439137	            0.229177	            0.301491	            0.096709	            4.137951	            8.673709	           -1.003310	           -0.232311	            0.006130	           -0.833667	           -1.617450	            0.587737	            0.549468
            3.757500	           31.291934	           43.389710	           14.186454	           -0.210321	            0.006351	           -0.434226	            0.140713	            0.195115	            0.063794	            9.822963	           17.166006	           -1.210157	           -0.178831	            0.005755	           -0.674333	           -0.069446	           -0.121359	            0.008555
            3.758000	           30.329641	           43.028403	           14.324865	           -0.208688	            0.006370	           -0.438489	            0.034589	            0.049071	            0.016337	           17.150462	           24.926961	           -1.232616	           -0.195188	            0.005727	           -0.683076	           -0.031572	           -0.045887	            0.002269
            3.758500	           30.512054	           42.669676	           13.910161	           -0.210222	            0.006392	           -0.443779	           -0.032802	           -0.045872	           -0.014954	           24.207956	           29.558053	           -1.735408	           -0.209268	            0.005686	           -0.685843	           -0.021119	           -0.025786	            0.001514
            3.759000	           31.014420	           43.754317	           13.225708	           -0.204692	            0.006388	           -0.442505	           -0.038507	           -0.054324	           -0.016421	           30.372101	           35.105669	           -1.952967	           -0.205322	            0.005699	           -0.685601	           -0.284348	           -0.328665	            0.018284
            3.759500	           31.333352	           45.199453	           12.543257	           -0.209914	            0.006369	           -0.438351	           -0.035741	           -0.051557	           -0.014308	           34.362767	           45.799815	           -1.635002	           -0.197895	            0.005741	           -0.689707	           -0.280106	           -0.373335	            0.013328
